<svg width="48" height="48" fill="none" xmlns="http://www.w3.org/2000/svg"><path d="M14.667 9.333h-4a1.333 1.333 0 00-1.334 1.334v26.666a1.333 1.333 0 001.334 1.334h4V9.333z" fill="#D6B1FF"/><path d="M17.333 38.667h13.334V9.333H17.333v29.334zM24 33.333a1.333 1.333 0 110-2.666 1.333 1.333 0 010 2.666zm0-18.666a1.333 1.333 0 110 2.666 1.333 1.333 0 010-2.666zm0 8a1.333 1.333 0 110 2.666 1.333 1.333 0 010-2.666z" fill="#8C30F5"/><path d="M37.333 9.333h-4v29.334h4a1.333 1.333 0 001.334-1.334V10.667a1.333 1.333 0 00-1.334-1.334z" fill="#2EC5CE"/></svg>