<svg width="48" height="48" fill="none" xmlns="http://www.w3.org/2000/svg"><path d="M20 21.333h-9.333A1.333 1.333 0 019.333 20v-9.333a1.333 1.333 0 011.334-1.334H20a1.333 1.333 0 011.333 1.334V20A1.333 1.333 0 0120 21.333zm0 17.333h-9.333a1.334 1.334 0 01-1.334-1.333V28a1.333 1.333 0 011.334-1.334H20A1.333 1.333 0 0121.333 28v9.333A1.333 1.333 0 0120 38.667z" fill="#8C30F5"/><path d="M25.333 10.666h13.334v2.667H25.333v-2.667zM38.667 28H25.333v2.667h13.334V28z" fill="#2EC5CE"/><path d="M38.667 34.666H25.333v2.667h13.334v-2.666zm0-17.333H25.333V20h13.334v-2.667z" fill="#D6B1FF"/></svg>