<svg width="48" height="48" fill="none" xmlns="http://www.w3.org/2000/svg"><path d="M36 40H24a1.333 1.333 0 01-1.333-1.333V36A1.333 1.333 0 0124 34.667h12A1.333 1.333 0 0137.333 36v2.667A1.334 1.334 0 0136 40z" fill="#D6B1FF"/><path d="M36 8H12a1.333 1.333 0 00-1.333 1.333V12A1.333 1.333 0 0012 13.333h24A1.333 1.333 0 0037.333 12V9.333A1.333 1.333 0 0036 8z" fill="#2EC5CE"/><path d="M36 16H12a1.333 1.333 0 00-1.333 1.333v13.334A1.333 1.333 0 0012 32h24a1.333 1.333 0 001.333-1.333V17.333A1.333 1.333 0 0036 16z" fill="#8C30F5"/></svg>